<svg width="390" height="300" viewBox="0 0 390 300" fill="none" xmlns="http://www.w3.org/2000/svg">
<g clip-path="url(#clip0_193_1139)">
<path fill-rule="evenodd" clip-rule="evenodd" d="M340 257C330.407 257 321.235 255.199 312.804 251.917C309.883 250.78 306.525 252.314 305.34 255.215C297.959 273.275 280.215 286 259.5 286C244.12 286 230.378 278.986 221.299 267.981C218.778 264.925 213.597 264.97 211.312 268.206C197.734 287.439 175.334 300 150 300C117.44 300 89.7257 279.251 79.3582 250.255C78.4444 247.699 75.772 246.168 73.1056 246.676C68.5371 247.545 63.8217 248 59 248C17.5786 248 -16 214.421 -16 173C-16 134.619 12.8306 102.971 50.0168 98.5324C52.2677 98.2638 54.1193 96.6156 54.7372 94.4345C60.2047 75.1373 77.9514 61 99 61C107.109 61 114.728 63.0984 121.344 66.7817C123.998 68.2595 127.456 67.4842 129.142 64.9574C139.989 48.7051 158.494 38 179.5 38C201.503 38 220.762 49.7456 231.35 67.3088C233.158 70.3067 237.379 71.0815 240.131 68.9175C250.419 60.8263 263.396 56 277.5 56C306.754 56 331.159 76.7637 336.781 104.358C337.093 105.887 338.44 107 340 107C381.421 107 415 140.579 415 182C415 223.421 381.421 257 340 257Z" fill="white"/>
<g opacity="0.3" filter="url(#filter0_i_193_1139)">
<path fill-rule="evenodd" clip-rule="evenodd" d="M98.7469 184.407C99.2404 184.405 99.7531 184.368 100.286 184.294C101.484 184.127 102.582 183.851 103.585 183.495C103.483 184.95 103.795 186.423 104.455 187.743C105.107 189.047 106.031 190.412 107.262 191.544C105.763 192.801 104.793 194.379 104.202 195.928C102.551 194.923 100.414 194.24 97.6746 194.143C97.9201 193.874 98.1483 193.604 98.3596 193.336C99.9754 191.285 100.467 188.512 99.5386 186.072C99.3278 185.518 99.0663 184.957 98.7469 184.407ZM87.0909 199.074C81.9737 199.26 78.8692 195.804 77.3142 192.693C76.4323 190.929 76.1713 188.891 76.69 186.988C77.7099 183.246 80.8243 178.799 88.2808 178.927C88.8349 178.937 89.365 178.97 89.8721 179.025C89.6696 178.689 89.4854 178.352 89.3189 178.019C88.4371 176.254 88.1761 174.216 88.6947 172.313C89.7146 168.571 92.8291 164.124 100.286 164.253C107.062 164.369 110.252 168.004 111.543 171.397C111.898 172.329 112.045 173.309 112.002 174.279C113.025 174.065 114.161 173.956 115.422 173.977C122.198 174.094 125.388 177.728 126.679 181.121C127.608 183.562 127.116 186.334 125.5 188.385C124.78 189.3 123.863 190.236 122.73 191.081C124.759 192.458 125.99 194.339 126.679 196.15C127.608 198.591 127.116 201.363 125.5 203.414C123.61 205.815 120.367 208.358 115.422 209.047C112.403 209.469 110.018 208.668 108.189 207.334C107.968 207.757 107.707 208.162 107.408 208.542C105.517 210.942 102.274 213.485 97.3291 214.175C91.4982 214.988 88.0346 211.245 86.3625 207.9C85.4806 206.135 85.2196 204.097 85.7383 202.194C86.0172 201.171 86.4527 200.095 87.0909 199.074Z" fill="#FF7074"/>
<ellipse cx="103.099" cy="190.663" rx="8.31675" ry="8.63662" fill="#FFF3B3"/>
</g>
<g filter="url(#filter1_i_193_1139)">
<path fill-rule="evenodd" clip-rule="evenodd" d="M174.483 111C184.491 93.6667 209.509 93.6667 219.517 111C224.433 119.515 231.317 127.078 238.169 134.606C242.218 139.054 246.255 143.489 249.87 148.102L319 213L235.722 215.343C224.726 220.787 211.168 224 196.5 224C183.811 224 171.951 221.595 161.863 217.422L88 219.5L133.822 163.392C138.684 152.801 146.951 143.914 155.256 134.986C162.332 127.38 169.435 119.744 174.483 111Z" fill="#F39A00"/>
</g>
<path d="M219.517 111L220.383 110.5L219.517 111ZM174.483 111L173.617 110.5L174.483 111ZM238.169 134.606L238.909 133.933L238.169 134.606ZM249.87 148.102L249.083 148.719L249.13 148.779L249.185 148.831L249.87 148.102ZM319 213L319.028 214L321.453 213.931L319.684 212.271L319 213ZM235.722 215.343L235.694 214.344L235.475 214.35L235.279 214.447L235.722 215.343ZM161.863 217.422L162.245 216.498L162.048 216.416L161.835 216.422L161.863 217.422ZM88 219.5L87.2255 218.867L85.8423 220.561L88.0281 220.5L88 219.5ZM133.822 163.392L134.596 164.024L134.677 163.925L134.73 163.809L133.822 163.392ZM155.256 134.986L154.524 134.305L155.256 134.986ZM220.383 110.5C209.99 92.5 184.01 92.5 173.617 110.5L175.349 111.5C184.972 94.8333 209.028 94.8333 218.651 111.5L220.383 110.5ZM238.909 133.933C232.042 126.388 225.236 118.905 220.383 110.5L218.651 111.5C223.63 120.125 230.592 127.767 237.43 135.279L238.909 133.933ZM250.657 147.486C247.016 142.838 242.953 138.375 238.909 133.933L237.43 135.279C241.483 139.732 245.495 144.14 249.083 148.719L250.657 147.486ZM249.185 148.831L318.316 213.729L319.684 212.271L250.554 147.373L249.185 148.831ZM318.972 212L235.694 214.344L235.75 216.343L319.028 214L318.972 212ZM196.5 225C211.31 225 225.022 221.756 236.166 216.24L235.279 214.447C224.431 219.817 211.026 223 196.5 223V225ZM161.481 218.346C171.697 222.572 183.687 225 196.5 225V223C183.934 223 172.206 220.618 162.245 216.498L161.481 218.346ZM161.835 216.422L87.9719 218.5L88.0281 220.5L161.891 218.421L161.835 216.422ZM88.7745 220.133L134.596 164.024L133.047 162.759L87.2255 218.867L88.7745 220.133ZM154.524 134.305C146.242 143.208 137.854 152.212 132.913 162.975L134.73 163.809C139.513 153.391 147.66 144.62 155.988 135.667L154.524 134.305ZM173.617 110.5C168.636 119.129 161.615 126.682 154.524 134.305L155.988 135.667C163.049 128.077 170.235 120.359 175.349 111.5L173.617 110.5Z" fill="url(#paint0_linear_193_1139)"/>
<g filter="url(#filter2_d_193_1139)">
<path d="M141.988 215.799C140.154 215.966 135.5 213.5 132.5 211.5L116.165 209.449C112.848 209.033 109.993 210.483 106.65 210.546C102.151 210.629 98.7601 216.108 94.3352 216.929C92.3432 217.299 90.2205 217.292 86.4877 215.799C76.8516 211.945 69.9801 224.171 59.7093 225.661C57.266 226.016 54.9128 226.644 52.9877 227.799C45.4877 232.299 47.9877 227.799 41.9877 223.299C35.9877 218.799 36.9877 223.299 30.4877 223.299C23.9877 223.299 21.4877 223.299 16.9877 227.799C12.4256 232.361 20.6279 236.746 27.0791 236.652L391.988 231.35C393.929 231.322 395.488 229.74 395.488 227.799V225.799C395.488 224.158 395.084 222.541 394.311 221.093L393.393 219.372C392.22 217.173 389.931 215.799 387.438 215.799C384.738 215.799 382.281 214.152 380.459 212.159C378.731 210.268 376.136 208.117 372.517 206.311C370.244 205.177 367.69 204.799 365.15 204.799H360.224C355.753 204.799 351.304 205.511 346.85 205.889C342.452 206.262 337.712 206.07 335.5 204.799C331.5 202.5 324.509 201.299 312.488 201.299C307 201.299 304.5 200.94 298.988 204.799C294.18 208.164 292.84 208.294 291.021 207.965C282.726 206.468 273.571 210.408 266.652 205.592C266.3 205.347 265.914 205.083 265.488 204.799C259.488 200.799 257.488 204.799 242.988 204.799C238.988 204.799 237.42 207.987 230.488 206C227 205 226.488 203 213.988 210C205.23 214.904 196.776 210.437 186.782 209.498C184.89 209.32 182.648 209.09 179.988 208.799C172.661 206.967 165.982 209.058 158.447 208.54C156.163 208.383 153.712 208.38 151.289 208.753C151.097 208.782 150.904 208.794 150.713 208.831C149.712 209.022 147.647 210.066 146.483 211.47C145.426 212.747 143.646 215.799 141.988 215.799Z" fill="#848484"/>
</g>
<path d="M83.0765 227.094C79.2247 226.695 78.7967 223.267 79.0642 221.603C79.0642 220.771 80.0272 218.907 83.879 218.109C87.7307 217.31 88.4262 221.104 88.2925 223.101C88.1587 224.598 86.9283 227.493 83.0765 227.094Z" fill="#6F6F6F"/>
<path d="M91.6241 220.504C90.4204 220.005 90.8217 228.49 94.0315 227.991C95.2352 228.273 96.8401 224.497 96.8401 221.502C96.8401 218.507 92.8278 221.003 91.6241 220.504Z" fill="#6F6F6F"/>
<path d="M223.458 207.645C222.5 207.638 224.72 212.871 226.856 211.74C227.764 211.61 228.027 208.827 227.343 206.944C226.659 205.061 224.416 207.652 223.458 207.645Z" fill="#6F6F6F"/>
<path d="M149.356 225.04C146.548 225.04 145.745 223.543 144.141 220.548C143.338 217.054 146.147 216.554 148.153 216.055C150.159 215.556 151.764 218.551 152.566 220.548C153.369 222.544 152.165 225.04 149.356 225.04Z" fill="#6F6F6F"/>
<path d="M121.356 222.04C118.548 222.04 117.745 220.543 116.141 217.548C115.338 214.054 118.147 213.554 120.153 213.055C122.159 212.556 123.764 215.551 124.566 217.548C125.369 219.544 124.165 222.04 121.356 222.04Z" fill="#6F6F6F"/>
<path d="M129.648 226C127.735 226 127.189 225.006 126.096 223.018C125.549 220.699 127.462 220.368 128.828 220.037C130.194 219.705 131.287 221.693 131.834 223.018C132.38 224.344 131.561 226 129.648 226Z" fill="#6F6F6F"/>
<path d="M73.2803 226.598C72.0846 225.105 72.5188 224.057 73.3871 221.961C74.8556 220.085 76.3099 221.371 77.4225 222.23C78.5351 223.09 77.6668 225.185 76.974 226.44C76.2813 227.695 74.4759 228.091 73.2803 226.598Z" fill="#6F6F6F"/>
<path d="M131.256 219C129.024 219 128.387 218.172 127.112 216.515C126.474 214.583 128.706 214.307 130.299 214.031C131.893 213.754 133.169 215.411 133.806 216.515C134.444 217.62 133.487 219 131.256 219Z" fill="#6F6F6F"/>
<path d="M317.04 211C315.446 211 314.991 210.172 314.08 208.515C313.624 206.583 315.218 206.307 316.357 206.031C317.495 205.754 318.406 207.411 318.862 208.515C319.317 209.62 318.634 211 317.04 211Z" fill="#6F6F6F"/>
<path d="M364.04 214C362.446 214 361.991 213.172 361.08 211.515C360.624 209.583 362.218 209.307 363.357 209.031C364.495 208.754 365.406 210.411 365.862 211.515C366.317 212.62 365.634 214 364.04 214Z" fill="#6F6F6F"/>
<path d="M358.869 211.11C358.937 212.013 358.496 212.306 357.613 212.892C356.557 213.232 356.334 212.341 356.131 211.708C355.928 211.075 356.811 210.489 357.406 210.184C358.002 209.879 358.8 210.207 358.869 211.11Z" fill="#6F6F6F"/>
<path d="M172.637 219.904C170.167 223.09 166.669 218.577 165.228 215.922C164.817 214.992 164.673 212.815 167.389 211.541C170.105 210.266 172.019 211.541 172.637 212.337C173.665 213.532 175.106 216.718 172.637 219.904Z" fill="#6F6F6F"/>
<path d="M159.138 222.778C159.217 224.879 156.257 224.547 154.767 224.119C154.284 223.934 153.484 223.191 154.157 221.697C154.829 220.203 156.042 219.947 156.564 220.005C157.389 220.054 159.06 220.677 159.138 222.778Z" fill="#6F6F6F"/>
<path d="M262.637 214.904C260.167 218.09 256.669 213.577 255.228 210.922C254.817 209.992 254.673 207.815 257.389 206.541C260.105 205.266 262.019 206.541 262.637 207.337C263.665 208.532 265.106 211.718 262.637 214.904Z" fill="#6F6F6F"/>
<path d="M262.637 214.904C260.167 218.09 256.669 213.577 255.228 210.922C254.817 209.992 254.673 207.815 257.389 206.541C260.105 205.266 262.019 206.541 262.637 207.337C263.665 208.532 265.106 211.718 262.637 214.904Z" fill="#6F6F6F"/>
<path d="M309.637 213.904C307.167 217.09 303.669 212.577 302.228 209.922C301.817 208.992 301.673 206.815 304.389 205.541C307.105 204.266 309.019 205.541 309.637 206.337C310.665 207.532 312.106 210.718 309.637 213.904Z" fill="#6F6F6F"/>
<path d="M319.045 215.532C319.802 218.199 315.876 218.111 313.818 217.733C313.136 217.553 311.872 216.696 312.274 214.718C312.676 212.74 314.162 212.276 314.855 212.292C315.936 212.261 318.288 212.865 319.045 215.532Z" fill="#6F6F6F"/>
<path d="M232.04 218C230.446 218 229.991 217.172 229.08 215.515C228.624 213.583 230.218 213.307 231.357 213.031C232.495 212.754 233.406 214.411 233.862 215.515C234.317 216.62 233.634 218 232.04 218Z" fill="#6F6F6F"/>
<path d="M223.637 222.904C221.167 226.09 217.669 221.577 216.228 218.922C215.817 217.992 215.673 215.815 218.389 214.541C221.105 213.266 223.019 214.541 223.637 215.337C224.665 216.532 226.106 219.718 223.637 222.904Z" fill="#6F6F6F"/>
<path d="M220.04 213C218.446 213 217.991 212.172 217.08 210.515C216.624 208.583 218.218 208.307 219.357 208.031C220.495 207.754 221.406 209.411 221.862 210.515C222.317 211.62 221.634 213 220.04 213Z" fill="#6F6F6F"/>
<path d="M330.252 221.331C331.188 221.531 330.065 215.959 327.745 216.638C326.829 216.583 326.013 219.256 326.305 221.238C326.597 223.22 329.315 221.132 330.252 221.331Z" fill="#6F6F6F"/>
<path d="M323.924 209.464C325.486 209.784 325.766 210.687 326.325 212.493C326.383 214.477 324.766 214.428 323.596 214.469C322.425 214.511 321.865 212.706 321.641 211.532C321.416 210.359 322.363 209.144 323.924 209.464Z" fill="#6F6F6F"/>
<path d="M328.646 208.517C329.946 204.702 334.721 207.834 336.946 209.877C337.637 210.622 338.48 212.635 336.325 214.722C334.171 216.81 331.947 216.227 331.104 215.674C329.743 214.878 327.345 212.333 328.646 208.517Z" fill="#6F6F6F"/>
<path d="M334.676 216.772C336.237 217.092 336.517 217.995 337.077 219.801C337.135 221.785 335.518 221.736 334.347 221.777C333.176 221.819 332.617 220.014 332.392 218.84C332.168 217.667 333.114 216.452 334.676 216.772Z" fill="#6F6F6F"/>
<path d="M212.669 215.984C213.908 217.657 212.053 219.95 210.971 220.888C210.594 221.155 209.721 221.232 209.25 219.411C208.779 217.59 209.315 216.325 209.642 215.92C210.135 215.244 211.429 214.311 212.669 215.984Z" fill="#6F6F6F"/>
<path d="M353.637 217.904C351.167 221.09 347.669 216.577 346.228 213.922C345.817 212.992 345.673 210.815 348.389 209.541C351.105 208.266 353.019 209.541 353.637 210.337C354.665 211.532 356.106 214.718 353.637 217.904Z" fill="#6F6F6F"/>
<path d="M40.6365 231.904C38.1672 235.09 34.6689 230.577 33.2284 227.922C32.8168 226.992 32.6728 224.815 35.3891 223.541C38.1054 222.266 40.0192 223.541 40.6365 224.337C41.6654 225.532 43.1059 228.718 40.6365 231.904Z" fill="#6F6F6F"/>
<path d="M160.676 214.591C159.874 214.092 156.263 211.596 153.454 214.092C151.448 216.587 156.664 218.584 157.868 219.083C159.072 219.582 160.676 218.584 161.479 218.085C162.281 217.586 161.479 215.09 160.676 214.591Z" fill="#6F6F6F"/>
<path d="M206.676 215.591C205.874 215.092 202.263 212.596 199.454 215.092C197.448 217.587 202.664 219.584 203.868 220.083C205.072 220.582 206.676 219.584 207.479 219.085C208.281 218.586 207.479 216.09 206.676 215.591Z" fill="#6F6F6F"/>
<path d="M195.6 219.409C198.804 216.962 201.028 222.221 201.74 225.157C201.9 226.161 201.481 228.302 198.529 228.838C195.576 229.373 194.053 227.651 193.661 226.723C192.972 225.304 192.397 221.855 195.6 219.409Z" fill="#6F6F6F"/>
<path d="M188.6 218.484C189.337 216.537 192.269 216.857 193.643 217.261C194.071 217.434 194.608 218.126 193.33 219.507C192.053 220.889 190.699 221.121 190.182 221.064C189.347 221.015 187.862 220.431 188.6 218.484Z" fill="#6F6F6F"/>
<path d="M175.505 216.03C176.048 216.69 178.428 219.904 181.417 218.114C183.734 216.147 179.884 213.06 179.005 212.31C178.126 211.561 176.528 212.17 175.729 212.475L175.729 212.475C174.93 212.779 174.962 215.37 175.505 216.03Z" fill="#6F6F6F"/>
<path d="M215.485 213.767C215.121 213.527 213.481 212.323 212.206 213.527C211.296 214.73 213.663 215.694 214.21 215.934C214.756 216.175 215.485 215.694 215.849 215.453L215.849 215.453C216.213 215.212 215.849 214.008 215.485 213.767Z" fill="#6F6F6F"/>
<path d="M290.676 211.591C289.874 211.092 286.263 208.596 283.454 211.092C281.448 213.587 286.664 215.584 287.868 216.083C289.072 216.582 290.676 215.584 291.479 215.085C292.281 214.586 291.479 212.09 290.676 211.591Z" fill="#6F6F6F"/>
<path d="M250.676 208.591C249.874 208.092 246.263 205.596 243.454 208.092C241.448 210.587 246.664 212.584 247.868 213.083C249.072 213.582 250.676 212.584 251.479 212.085C252.281 211.586 251.479 209.09 250.676 208.591Z" fill="#6F6F6F"/>
<g filter="url(#filter3_d_193_1139)">
<ellipse cx="158.5" cy="206" rx="11.5" ry="8" fill="#F39A00"/>
<path d="M169.5 206C169.5 208 168.335 209.863 166.346 211.246C164.359 212.629 161.586 213.5 158.5 213.5C155.414 213.5 152.641 212.629 150.654 211.246C148.665 209.863 147.5 208 147.5 206C147.5 204 148.665 202.137 150.654 200.754C152.641 199.371 155.414 198.5 158.5 198.5C161.586 198.5 164.359 199.371 166.346 200.754C168.335 202.137 169.5 204 169.5 206Z" stroke="#FFAC1D"/>
</g>
<g filter="url(#filter4_d_193_1139)">
<ellipse cx="230.5" cy="206" rx="11.5" ry="8" fill="#F39A00"/>
<path d="M241.5 206C241.5 208 240.335 209.863 238.346 211.246C236.359 212.629 233.586 213.5 230.5 213.5C227.414 213.5 224.641 212.629 222.654 211.246C220.665 209.863 219.5 208 219.5 206C219.5 204 220.665 202.137 222.654 200.754C224.641 199.371 227.414 198.5 230.5 198.5C233.586 198.5 236.359 199.371 238.346 200.754C240.335 202.137 241.5 204 241.5 206Z" stroke="#FFAC1D"/>
</g>
<g filter="url(#filter5_d_193_1139)">
<path d="M138.694 138.218C150.911 102.656 188.92 107.084 194.166 113.058C198.141 117.584 197.743 130.346 194.166 135.089C186.234 145.607 157.099 143.526 140.204 140.753C139.024 140.56 138.306 139.349 138.694 138.218Z" fill="#7FA38D"/>
</g>
<g filter="url(#filter6_d_193_1139)">
<path d="M254.274 137.845C241.893 103.117 202.929 106.713 198.317 113.313C194.014 118.06 191.628 127.847 198.317 134.855C207.579 144.559 235.809 143.056 252.761 140.394C253.954 140.206 254.68 138.982 254.274 137.845Z" fill="#7FA38D"/>
</g>
<path d="M208.275 175C209.228 175 210.018 175.781 209.809 176.71C209.675 177.303 209.471 177.884 209.201 178.444C208.673 179.536 207.9 180.528 206.925 181.364C205.95 182.2 204.792 182.863 203.518 183.315C202.244 183.767 200.879 184 199.5 184C198.121 184 196.756 183.767 195.482 183.315C194.208 182.863 193.05 182.2 192.075 181.364C191.1 180.528 190.327 179.536 189.799 178.444C189.529 177.884 189.325 177.303 189.191 176.71C188.982 175.781 189.772 175 190.725 175C191.677 175 192.425 175.792 192.732 176.693C192.803 176.903 192.888 177.11 192.986 177.313C193.34 178.046 193.86 178.712 194.514 179.273C195.169 179.835 195.946 180.28 196.802 180.583C197.657 180.887 198.574 181.044 199.5 181.044C200.426 181.044 201.343 180.887 202.198 180.583C203.054 180.28 203.831 179.835 204.486 179.273C205.14 178.712 205.66 178.046 206.014 177.313C206.112 177.11 206.197 176.903 206.268 176.693C206.575 175.792 207.323 175 208.275 175Z" fill="#120000"/>
<ellipse cx="213" cy="161" rx="6" ry="8" fill="white"/>
<ellipse cx="185" cy="161" rx="6" ry="8" fill="white"/>
<circle cx="183.5" cy="161.5" r="4.5" fill="black"/>
<circle cx="211.5" cy="161.5" r="4.5" fill="black"/>
<g opacity="0.3">
<g filter="url(#filter7_i_193_1139)">
<path d="M286.141 202.114C270.741 189.826 279.647 175.965 286.43 170.163C286.717 169.917 286.822 169.516 286.714 169.153C282.977 156.64 299.702 152.519 306.386 159.101C311.026 163.67 311.822 167.434 311.582 169.342C311.524 169.811 311.713 170.315 312.13 170.537C320.691 175.101 322.414 181.763 322.602 189.897C322.795 198.263 305.848 217.841 286.141 202.114Z" fill="#F5A148"/>
</g>
<ellipse cx="318.333" cy="189.109" rx="0.939829" ry="1.1184" fill="#884600"/>
<ellipse cx="313.431" cy="193.48" rx="0.961139" ry="1.14376" fill="#884600"/>
<ellipse cx="311.906" cy="188.806" rx="0.685419" ry="0.815653" fill="#884600"/>
<ellipse cx="316.432" cy="193.97" rx="0.961139" ry="1.14376" fill="#884600"/>
<ellipse cx="317.393" cy="182.698" rx="0.736479" ry="0.884755" transform="rotate(-15 317.393 182.698)" fill="#884600"/>
<ellipse cx="308.666" cy="200.121" rx="0.736479" ry="0.884755" transform="rotate(-15 308.666 200.121)" fill="#884600"/>
<ellipse cx="313.209" cy="197.269" rx="0.723418" ry="0.860872" fill="#884600"/>
<g filter="url(#filter8_i_193_1139)">
<path d="M304.06 149.007C298.665 150.036 296.614 154.123 296.072 157.31C295.881 158.433 296.965 159.254 298.036 158.863C303.796 156.764 305.528 153.011 305.722 150.391C305.79 149.483 304.954 148.837 304.06 149.007Z" fill="#1D8746"/>
</g>
<path d="M298.395 156.875C299.593 155.941 302.37 153.504 303.898 151.225" stroke="#CFFFC7" stroke-width="0.27" stroke-linecap="round"/>
</g>
<g opacity="0.7" clip-path="url(#clip1_193_1139)">
<g filter="url(#filter9_i_193_1139)">
<path fill-rule="evenodd" clip-rule="evenodd" d="M322.959 188.732C323.33 190.002 324.068 191.5 325.396 193.14C326.184 194.112 326.943 194.907 327.655 195.554C327.272 195.329 326.859 195.101 326.415 194.873C324.202 193.732 322.475 193.221 321.157 193.082C318.625 192.814 317.666 195.754 319.437 197.583C320.358 198.534 321.709 199.515 323.648 200.346C324.989 200.92 326.184 201.3 327.226 201.539C327.617 201.628 327.992 201.663 328.346 201.652C327.749 201.729 327.103 201.839 326.405 201.988C323.97 202.507 322.309 203.205 321.201 203.932C319.072 205.328 320.192 208.212 322.721 208.505C324.035 208.658 325.702 208.561 327.73 207.976C329.131 207.572 330.296 207.109 331.254 206.634C332.094 206.217 332.682 205.62 333.014 204.98C332.888 205.49 332.89 206.062 333.062 206.651C333.433 207.921 334.171 209.419 335.499 211.058C336.418 212.192 337.297 213.084 338.108 213.782C340.562 215.892 343.822 214.398 342.653 211.38C342.233 210.294 341.549 209.009 340.499 207.506C339.844 206.569 339.218 205.797 338.626 205.165C339.573 205.771 340.725 206.307 342.111 206.694C344.137 207.259 345.788 207.404 347.089 207.325C349.655 207.168 350.941 204.22 348.853 202.157C347.746 201.063 346.034 199.932 343.455 198.965C343.336 198.92 343.218 198.877 343.101 198.835C343.981 198.531 344.75 198.206 345.419 197.874C348.318 196.436 348.211 192.851 344.976 192.753C343.812 192.718 342.362 192.847 340.569 193.229C339.234 193.513 338.131 193.852 337.225 194.22C337.364 193.739 337.496 193.22 337.619 192.66C338.155 190.229 338.207 188.428 338.004 187.119C337.615 184.603 334.527 184.428 333.212 186.609C332.529 187.742 331.927 189.299 331.62 191.387L331.605 191.494C331.27 190.902 330.87 190.267 330.395 189.588C328.97 187.547 327.68 186.29 326.579 185.552C324.464 184.134 322.244 186.288 322.959 188.732ZM334.622 198.376C333.48 198.707 332.22 197.972 331.667 196.57C331.022 196.904 330.171 196.954 329.31 196.641C329.61 196.863 329.881 197.081 330.127 197.295C332.085 198.999 331.066 201.164 328.959 201.582C329.645 201.516 330.261 201.495 330.812 201.512C332.796 201.573 333.603 202.944 333.262 204.327C333.86 203.196 335.167 202.611 336.472 203.341L336.459 203.327C335.401 202.132 335.073 200.448 335.591 199.315C335.181 199.071 334.853 198.745 334.622 198.376Z" fill="#F7E023"/>
<g filter="url(#filter10_i_193_1139)">
<ellipse cx="333.473" cy="199.797" rx="5.18165" ry="5.38094" transform="rotate(34.3354 333.473 199.797)" fill="#9CCB0E"/>
</g>
</g>
</g>
<ellipse cx="199" cy="171" rx="3" ry="2" fill="#FFB8B8"/>
<g clip-path="url(#clip2_193_1139)">
<g filter="url(#filter11_i_193_1139)">
<path d="M313.405 181.305L312.451 180.098C311.218 178.538 309.577 177.296 307.637 176.863C303.095 175.85 302.063 177.462 299.237 180.235C298.599 180.862 297.497 181.207 296.648 181.966C294.561 183.829 296.454 186.477 298.887 188.059C301.531 189.779 305.124 190.175 307.542 192.2C308.451 192.962 309.337 193.575 310.286 193.683C314.797 194.2 315.575 188.593 314.995 184.653C314.812 183.408 314.185 182.292 313.405 181.305Z" fill="#A3A3A5"/>
</g>
<g filter="url(#filter12_i_193_1139)">
<ellipse cx="300.179" cy="185.361" rx="0.813273" ry="0.748187" transform="rotate(77.0633 300.179 185.361)" fill="#6C6868"/>
</g>
<g filter="url(#filter13_i_193_1139)">
<ellipse cx="313.54" cy="191.755" rx="0.813273" ry="0.748187" transform="rotate(77.0633 313.54 191.755)" fill="#6C6868"/>
</g>
<g filter="url(#filter14_i_193_1139)">
<ellipse cx="306.114" cy="183.942" rx="0.597746" ry="0.44831" transform="rotate(48.1523 306.114 183.942)" fill="#6C6868"/>
</g>
<g filter="url(#filter15_i_193_1139)">
<ellipse cx="310.291" cy="187.023" rx="0.807827" ry="0.60587" transform="rotate(136.723 310.291 187.023)" fill="#6C6868"/>
</g>
<g filter="url(#filter16_i_193_1139)">
<ellipse cx="313.445" cy="184.789" rx="0.504688" ry="0.845364" transform="rotate(177.715 313.445 184.789)" fill="#6C6868"/>
</g>
<g filter="url(#filter17_i_193_1139)">
<ellipse cx="305.205" cy="188.55" rx="0.953908" ry="0.982888" transform="rotate(177.715 305.205 188.55)" fill="#6C6868"/>
</g>
<g filter="url(#filter18_i_193_1139)">
<ellipse cx="309.718" cy="189.595" rx="0.953908" ry="0.665777" transform="rotate(177.715 309.718 189.595)" fill="#6C6868"/>
</g>
</g>
<ellipse cx="223.5" cy="174" rx="6.5" ry="5" fill="#F47118"/>
<ellipse cx="174" cy="174" rx="7" ry="5" fill="#F47118"/>
<g filter="url(#filter19_i_193_1139)">
<path fill-rule="evenodd" clip-rule="evenodd" d="M76.2678 208.76C76.4547 208.759 76.6489 208.746 76.8506 208.717C77.3044 208.654 77.7203 208.55 78.1003 208.415C78.0617 208.966 78.18 209.524 78.4299 210.024C78.6769 210.518 79.0269 211.035 79.4931 211.463C78.9255 211.94 78.5579 212.538 78.334 213.124C77.7085 212.743 76.8993 212.485 75.8616 212.448C75.9546 212.346 76.041 212.244 76.1211 212.142C76.7331 211.365 76.9194 210.315 76.5677 209.391C76.4878 209.181 76.3888 208.969 76.2678 208.76ZM71.8526 214.316C69.9143 214.386 68.7383 213.077 68.1493 211.899C67.8153 211.231 67.7164 210.459 67.9129 209.738C68.2992 208.32 69.4789 206.636 72.3033 206.685C72.5132 206.688 72.714 206.701 72.9061 206.721C72.8294 206.594 72.7596 206.467 72.6966 206.34C72.3625 205.672 72.2637 204.9 72.4601 204.179C72.8465 202.762 74.0262 201.077 76.8506 201.126C79.4174 201.17 80.6259 202.547 81.1149 203.832C81.2492 204.185 81.3051 204.556 81.2888 204.924C81.6763 204.843 82.1066 204.801 82.584 204.81C85.1508 204.854 86.3592 206.23 86.8483 207.516C87.2 208.44 87.0137 209.49 86.4017 210.267C86.1287 210.614 85.7814 210.968 85.3524 211.288C86.1209 211.81 86.5872 212.522 86.8483 213.208C87.2 214.133 87.0137 215.183 86.4017 215.96C85.6854 216.869 84.4572 217.832 82.584 218.094C81.4404 218.253 80.5373 217.95 79.8442 217.445C79.7607 217.605 79.6619 217.758 79.5485 217.902C78.8322 218.811 77.604 219.775 75.7308 220.036C73.5221 220.344 72.2101 218.926 71.5767 217.659C71.2427 216.991 71.1438 216.219 71.3403 215.498C71.4459 215.11 71.6109 214.703 71.8526 214.316Z" fill="#FF7074"/>
<g filter="url(#filter20_i_193_1139)">
<ellipse cx="77.9164" cy="211.13" rx="3.15028" ry="3.27145" fill="#FFF3B3"/>
</g>
</g>
<g clip-path="url(#clip3_193_1139)">
<g filter="url(#filter21_i_193_1139)">
<path d="M276.733 209.108C266.997 201.339 272.628 192.576 276.916 188.908C277.097 188.753 277.164 188.499 277.096 188.27C274.733 180.359 285.306 177.754 289.533 181.915C292.466 184.803 292.969 187.183 292.818 188.389C292.78 188.685 292.9 189.004 293.164 189.145C298.576 192.03 299.665 196.242 299.784 201.384C299.906 206.673 289.192 219.05 276.733 209.108Z" fill="#F5A148"/>
</g>
<ellipse cx="297.085" cy="200.886" rx="0.594166" ry="0.707061" fill="#884600"/>
<ellipse cx="293.986" cy="203.649" rx="0.607639" ry="0.723094" fill="#884600"/>
<ellipse cx="293.022" cy="200.694" rx="0.433327" ry="0.515662" fill="#884600"/>
<ellipse cx="295.884" cy="203.959" rx="0.607639" ry="0.723094" fill="#884600"/>
<ellipse cx="296.491" cy="196.833" rx="0.465607" ry="0.559348" transform="rotate(-15 296.491 196.833)" fill="#884600"/>
<ellipse cx="290.974" cy="207.848" rx="0.465607" ry="0.559348" transform="rotate(-15 290.974 207.848)" fill="#884600"/>
<ellipse cx="293.846" cy="206.045" rx="0.45735" ry="0.544249" fill="#884600"/>
<g filter="url(#filter22_i_193_1139)">
<path d="M288.062 175.533C284.651 176.184 283.355 178.768 283.012 180.782C282.891 181.493 283.576 182.011 284.253 181.764C287.895 180.438 288.99 178.065 289.113 176.408C289.155 175.834 288.627 175.425 288.062 175.533Z" fill="#1D8746"/>
</g>
<path d="M284.48 180.507C285.238 179.917 286.994 178.376 287.96 176.935" stroke="#CFFFC7" stroke-width="0.170696" stroke-linecap="round"/>
<g clip-path="url(#clip4_193_1139)">
<g filter="url(#filter23_i_193_1139)">
<path fill-rule="evenodd" clip-rule="evenodd" d="M288.301 197.177C289.119 197.351 290.174 197.39 291.485 197.142C292.262 196.995 292.933 196.81 293.506 196.608C293.266 196.754 293.016 196.915 292.755 197.094C291.457 197.984 290.655 198.792 290.182 199.484C289.274 200.813 290.623 202.228 292.172 201.791C292.977 201.563 293.928 201.105 294.972 200.275C295.694 199.7 296.263 199.149 296.709 198.641C296.876 198.45 297.008 198.251 297.107 198.051C296.971 198.407 296.839 198.8 296.713 199.233C296.272 200.743 296.163 201.877 296.235 202.712C296.374 204.315 298.315 204.556 299.236 203.236C299.715 202.551 300.161 201.594 300.443 200.29C300.638 199.388 300.73 198.601 300.752 197.926C300.772 197.333 300.616 196.827 300.359 196.451C300.605 196.673 300.924 196.844 301.303 196.925C302.122 197.099 303.177 197.137 304.487 196.889C305.394 196.718 306.154 196.496 306.786 196.253C308.696 195.52 308.841 193.258 306.811 193.004C306.081 192.912 305.16 192.907 304.009 193.041C303.291 193.125 302.674 193.242 302.144 193.382C302.766 193.037 303.409 192.556 304.04 191.901C304.962 190.942 305.538 190.067 305.883 189.319C306.565 187.844 305.31 186.244 303.536 186.788C302.595 187.076 301.452 187.69 300.141 188.836C300.08 188.889 300.021 188.941 299.963 188.994C300.057 188.413 300.107 187.887 300.122 187.416C300.191 185.371 298.163 184.356 297.139 186.127C296.77 186.764 296.408 187.61 296.083 188.723C295.841 189.551 295.699 190.266 295.632 190.881C295.406 190.659 295.157 190.43 294.882 190.194C293.689 189.167 292.703 188.598 291.913 188.319C290.396 187.781 289.373 189.448 290.193 190.833C290.619 191.553 291.305 192.355 292.375 193.152L292.43 193.193C292 193.201 291.527 193.234 291.006 193.294C289.443 193.476 288.357 193.817 287.616 194.209C286.193 194.961 286.727 196.842 288.301 197.177ZM297.165 193.576C297.007 194.31 296.221 194.792 295.274 194.679C295.267 195.139 295.039 195.627 294.607 196.012C294.82 195.912 295.023 195.827 295.216 195.754C296.752 195.175 297.651 196.391 297.252 197.689C297.421 197.287 297.594 196.939 297.769 196.637C298.397 195.551 299.402 195.512 300.07 196.116C299.62 195.445 299.686 194.542 300.483 194.035L300.472 194.037C299.489 194.268 298.454 193.946 297.978 193.318C297.72 193.473 297.44 193.558 297.165 193.576Z" fill="#F7E023"/>
<g filter="url(#filter24_i_193_1139)">
<ellipse cx="297.612" cy="194.641" rx="3.27587" ry="3.40187" transform="rotate(-27.3614 297.612 194.641)" fill="#9CCB0E"/>
</g>
</g>
</g>
</g>
<g clip-path="url(#clip5_193_1139)">
<g filter="url(#filter25_i_193_1139)">
<path fill-rule="evenodd" clip-rule="evenodd" d="M85.7959 204.056C87.0201 205.061 88.7603 206.043 91.1795 206.766C92.6143 207.196 93.9014 207.469 95.0415 207.627C94.511 207.664 93.9498 207.717 93.3562 207.791C90.4001 208.158 88.348 208.819 86.9517 209.57C84.269 211.014 85.3057 214.568 88.2904 215.18C89.8418 215.497 91.8391 215.555 94.3167 215.067C96.0297 214.73 97.4663 214.299 98.6579 213.831C99.1042 213.656 99.4989 213.437 99.8408 213.187C99.3024 213.666 98.7385 214.212 98.1491 214.83C96.0936 216.986 94.9239 218.797 94.3194 220.263C93.1578 223.079 96.2108 225.173 98.9079 223.756C100.31 223.019 101.892 221.799 103.5 219.852C104.612 218.507 105.451 217.263 106.077 216.147C106.626 215.168 106.804 214.182 106.7 213.325C106.919 213.914 107.307 214.478 107.875 214.943C109.099 215.948 110.839 216.93 113.258 217.654C114.931 218.154 116.403 218.442 117.675 218.584C121.524 219.013 123.738 215.337 120.545 213.143C119.397 212.354 117.853 211.545 115.801 210.769C114.522 210.285 113.382 209.945 112.37 209.72C113.716 209.679 115.215 209.432 116.847 208.878C119.23 208.069 120.96 207.098 122.191 206.141C124.62 204.254 123.902 200.474 120.447 199.844C118.613 199.51 116.158 199.548 112.957 200.333C112.809 200.369 112.663 200.406 112.52 200.444C113.185 199.55 113.725 198.709 114.162 197.93C116.056 194.551 113.531 191.081 110.268 193.168C109.094 193.918 107.748 195.025 106.234 196.613C105.106 197.796 104.246 198.874 103.598 199.849C103.411 199.28 103.191 198.678 102.935 198.041C101.823 195.278 100.659 193.463 99.5749 192.306C97.4919 190.083 94.3221 191.995 94.4953 195.036C94.5854 196.618 95.0413 198.563 96.1473 200.833L96.2045 200.95C95.474 200.59 94.6501 200.233 93.7223 199.882C90.9361 198.828 88.8126 198.456 87.227 198.47C84.1804 198.496 83.4405 202.124 85.7959 204.056ZM103.831 205.713C102.926 206.811 101.185 206.936 99.6921 205.923C99.2802 206.689 98.473 207.313 97.4111 207.584C97.8567 207.601 98.2725 207.634 98.6602 207.68C101.745 208.042 102.199 210.869 100.399 212.704C101.032 212.176 101.627 211.74 102.183 211.384C104.184 210.105 105.907 210.915 106.505 212.512C106.332 210.991 107.228 209.531 109.01 209.371L108.988 209.366C107.136 208.899 105.675 207.457 105.422 205.988C104.853 206.023 104.308 205.922 103.831 205.713Z" fill="#F7E023"/>
<g filter="url(#filter26_i_193_1139)">
<ellipse cx="103.655" cy="207.893" rx="6.20097" ry="6.43947" fill="#9CCB0E"/>
</g>
</g>
</g>
<g clip-path="url(#clip6_193_1139)">
<g filter="url(#filter27_i_193_1139)">
<path fill-rule="evenodd" clip-rule="evenodd" d="M118.301 218.177C119.119 218.351 120.174 218.39 121.485 218.142C122.262 217.995 122.933 217.81 123.506 217.608C123.266 217.754 123.016 217.915 122.755 218.094C121.457 218.984 120.655 219.792 120.182 220.484C119.274 221.813 120.623 223.228 122.172 222.791C122.977 222.563 123.928 222.105 124.972 221.275C125.694 220.7 126.263 220.149 126.709 219.641C126.876 219.45 127.008 219.251 127.107 219.051C126.971 219.407 126.839 219.8 126.713 220.233C126.272 221.743 126.163 222.877 126.235 223.712C126.374 225.315 128.315 225.556 129.236 224.236C129.715 223.551 130.161 222.594 130.443 221.29C130.638 220.388 130.73 219.601 130.752 218.926C130.772 218.333 130.616 217.827 130.359 217.451C130.605 217.673 130.924 217.844 131.303 217.925C132.122 218.099 133.177 218.137 134.487 217.889C135.394 217.718 136.154 217.496 136.786 217.253C138.696 216.52 138.841 214.258 136.811 214.004C136.081 213.912 135.16 213.907 134.009 214.041C133.291 214.125 132.674 214.242 132.144 214.382C132.766 214.037 133.409 213.556 134.04 212.901C134.962 211.942 135.538 211.067 135.883 210.319C136.565 208.844 135.31 207.244 133.536 207.788C132.594 208.076 131.452 208.69 130.141 209.836C130.08 209.889 130.021 209.941 129.963 209.994C130.057 209.413 130.107 208.887 130.122 208.416C130.191 206.371 128.163 205.356 127.139 207.127C126.77 207.764 126.408 208.61 126.083 209.723C125.841 210.551 125.699 211.266 125.632 211.881C125.406 211.659 125.156 211.43 124.882 211.194C123.689 210.167 122.703 209.598 121.913 209.319C120.396 208.781 119.373 210.448 120.193 211.833C120.619 212.553 121.305 213.355 122.375 214.152L122.43 214.193C122 214.201 121.527 214.234 121.006 214.294C119.443 214.476 118.357 214.817 117.616 215.209C116.193 215.961 116.727 217.842 118.301 218.177ZM127.165 214.576C127.007 215.31 126.221 215.792 125.274 215.679C125.267 216.139 125.039 216.627 124.607 217.012C124.82 216.912 125.023 216.827 125.216 216.754C126.752 216.175 127.651 217.391 127.252 218.689C127.421 218.287 127.594 217.939 127.769 217.637C128.397 216.551 129.402 216.512 130.07 217.116C129.62 216.445 129.686 215.542 130.483 215.035L130.472 215.037C129.489 215.268 128.454 214.946 127.978 214.318C127.72 214.473 127.44 214.558 127.165 214.576Z" fill="#F7E023"/>
<g filter="url(#filter28_i_193_1139)">
<ellipse cx="127.612" cy="215.641" rx="3.27587" ry="3.40187" transform="rotate(-27.3614 127.612 215.641)" fill="#9CCB0E"/>
</g>
</g>
</g>
<g filter="url(#filter29_i_193_1139)">
<path d="M317.944 190.069L315.708 189.911C312.817 189.706 309.868 190.253 307.495 191.916C301.942 195.811 302.665 198.506 302.874 204.273C302.921 205.576 302.211 207.101 302.193 208.761C302.149 212.838 306.86 213.401 310.953 212.336C315.402 211.179 319.359 207.701 323.915 207.087C325.628 206.856 327.159 206.503 328.208 205.589C333.195 201.239 327.922 194.893 323.111 191.646C321.591 190.621 319.773 190.199 317.944 190.069Z" fill="#A3A3A5"/>
</g>
<g filter="url(#filter30_i_193_1139)">
<ellipse cx="309.319" cy="208.295" rx="1.18536" ry="1.09049" transform="rotate(29.4417 309.319 208.295)" fill="#6C6868"/>
</g>
<g filter="url(#filter31_i_193_1139)">
<ellipse cx="329.329" cy="200.191" rx="1.18536" ry="1.09049" transform="rotate(29.4417 329.329 200.191)" fill="#6C6868"/>
</g>
<g filter="url(#filter32_i_193_1139)">
<ellipse cx="313.621" cy="200.51" rx="0.871224" ry="0.653418" transform="rotate(0.53064 313.621 200.51)" fill="#6C6868"/>
</g>
<g filter="url(#filter33_i_193_1139)">
<ellipse cx="321.041" cy="199.04" rx="1.17742" ry="0.883065" transform="rotate(89.1016 321.041 199.04)" fill="#6C6868"/>
</g>
<g filter="url(#filter34_i_193_1139)">
<ellipse cx="321.735" cy="193.45" rx="0.73559" ry="1.23213" transform="rotate(130.093 321.735 193.45)" fill="#6C6868"/>
</g>
<g filter="url(#filter35_i_193_1139)">
<ellipse cx="317.689" cy="206.016" rx="1.39034" ry="1.43257" transform="rotate(130.093 317.689 206.016)" fill="#6C6868"/>
</g>
<g filter="url(#filter36_i_193_1139)">
<ellipse cx="323.247" cy="202.184" rx="1.39034" ry="0.97038" transform="rotate(130.093 323.247 202.184)" fill="#6C6868"/>
</g>
</g>
<path d="M210 119.335C215.94 122.519 230.736 129.398 242.404 131.437" stroke="#C5C5C5" stroke-width="2" stroke-linecap="round"/>
<path d="M150.818 135.794C158.027 132.94 175.141 124.985 185.931 115.992" stroke="#C5C5C5" stroke-width="2" stroke-linecap="round"/>
<defs>
<filter id="filter0_i_193_1139" x="69" y="156" width="66" height="66" filterUnits="userSpaceOnUse" color-interpolation-filters="sRGB">
<feFlood flood-opacity="0" result="BackgroundImageFix"/>
<feBlend mode="normal" in="SourceGraphic" in2="BackgroundImageFix" result="shape"/>
<feColorMatrix in="SourceAlpha" type="matrix" values="0 0 0 0 0 0 0 0 0 0 0 0 0 0 0 0 0 0 127 0" result="hardAlpha"/>
<feOffset/>
<feGaussianBlur stdDeviation="4.125"/>
<feComposite in2="hardAlpha" operator="arithmetic" k2="-1" k3="1"/>
<feColorMatrix type="matrix" values="0 0 0 0 0.55 0 0 0 0 0.00229168 0 0 0 0 0.00229168 0 0 0 0.2 0"/>
<feBlend mode="normal" in2="shape" result="effect1_innerShadow_193_1139"/>
</filter>
<filter id="filter1_i_193_1139" x="85.8423" y="97" width="235.611" height="132" filterUnits="userSpaceOnUse" color-interpolation-filters="sRGB">
<feFlood flood-opacity="0" result="BackgroundImageFix"/>
<feBlend mode="normal" in="SourceGraphic" in2="BackgroundImageFix" result="shape"/>
<feColorMatrix in="SourceAlpha" type="matrix" values="0 0 0 0 0 0 0 0 0 0 0 0 0 0 0 0 0 0 127 0" result="hardAlpha"/>
<feOffset dy="4"/>
<feGaussianBlur stdDeviation="5"/>
<feComposite in2="hardAlpha" operator="arithmetic" k2="-1" k3="1"/>
<feColorMatrix type="matrix" values="0 0 0 0 1 0 0 0 0 0.860401 0 0 0 0 0.6125 0 0 0 1 0"/>
<feBlend mode="normal" in2="shape" result="effect1_innerShadow_193_1139"/>
</filter>
<filter id="filter2_d_193_1139" x="15.666" y="197.29" width="387.822" height="43.3636" filterUnits="userSpaceOnUse" color-interpolation-filters="sRGB">
<feFlood flood-opacity="0" result="BackgroundImageFix"/>
<feColorMatrix in="SourceAlpha" type="matrix" values="0 0 0 0 0 0 0 0 0 0 0 0 0 0 0 0 0 0 127 0" result="hardAlpha"/>
<feOffset dx="4"/>
<feGaussianBlur stdDeviation="2"/>
<feComposite in2="hardAlpha" operator="out"/>
<feColorMatrix type="matrix" values="0 0 0 0 0 0 0 0 0 0 0 0 0 0 0 0 0 0 0.25 0"/>
<feBlend mode="normal" in2="BackgroundImageFix" result="effect1_dropShadow_193_1139"/>
<feBlend mode="normal" in="SourceGraphic" in2="effect1_dropShadow_193_1139" result="shape"/>
</filter>
<filter id="filter3_d_193_1139" x="143" y="198" width="31" height="24" filterUnits="userSpaceOnUse" color-interpolation-filters="sRGB">
<feFlood flood-opacity="0" result="BackgroundImageFix"/>
<feColorMatrix in="SourceAlpha" type="matrix" values="0 0 0 0 0 0 0 0 0 0 0 0 0 0 0 0 0 0 127 0" result="hardAlpha"/>
<feOffset dy="4"/>
<feGaussianBlur stdDeviation="2"/>
<feComposite in2="hardAlpha" operator="out"/>
<feColorMatrix type="matrix" values="0 0 0 0 0 0 0 0 0 0 0 0 0 0 0 0 0 0 0.15 0"/>
<feBlend mode="normal" in2="BackgroundImageFix" result="effect1_dropShadow_193_1139"/>
<feBlend mode="normal" in="SourceGraphic" in2="effect1_dropShadow_193_1139" result="shape"/>
</filter>
<filter id="filter4_d_193_1139" x="215" y="198" width="31" height="24" filterUnits="userSpaceOnUse" color-interpolation-filters="sRGB">
<feFlood flood-opacity="0" result="BackgroundImageFix"/>
<feColorMatrix in="SourceAlpha" type="matrix" values="0 0 0 0 0 0 0 0 0 0 0 0 0 0 0 0 0 0 127 0" result="hardAlpha"/>
<feOffset dy="4"/>
<feGaussianBlur stdDeviation="2"/>
<feComposite in2="hardAlpha" operator="out"/>
<feColorMatrix type="matrix" values="0 0 0 0 0 0 0 0 0 0 0 0 0 0 0 0 0 0 0.15 0"/>
<feBlend mode="normal" in2="BackgroundImageFix" result="effect1_dropShadow_193_1139"/>
<feBlend mode="normal" in="SourceGraphic" in2="effect1_dropShadow_193_1139" result="shape"/>
</filter>
<filter id="filter5_d_193_1139" x="135.588" y="108" width="64.4119" height="40" filterUnits="userSpaceOnUse" color-interpolation-filters="sRGB">
<feFlood flood-opacity="0" result="BackgroundImageFix"/>
<feColorMatrix in="SourceAlpha" type="matrix" values="0 0 0 0 0 0 0 0 0 0 0 0 0 0 0 0 0 0 127 0" result="hardAlpha"/>
<feOffset dy="2"/>
<feGaussianBlur stdDeviation="1.5"/>
<feComposite in2="hardAlpha" operator="out"/>
<feColorMatrix type="matrix" values="0 0 0 0 0 0 0 0 0 0 0 0 0 0 0 0 0 0 0.25 0"/>
<feBlend mode="normal" in2="BackgroundImageFix" result="effect1_dropShadow_193_1139"/>
<feBlend mode="normal" in="SourceGraphic" in2="effect1_dropShadow_193_1139" result="shape"/>
</filter>
<filter id="filter6_d_193_1139" x="191.148" y="108" width="66.2399" height="39.3914" filterUnits="userSpaceOnUse" color-interpolation-filters="sRGB">
<feFlood flood-opacity="0" result="BackgroundImageFix"/>
<feColorMatrix in="SourceAlpha" type="matrix" values="0 0 0 0 0 0 0 0 0 0 0 0 0 0 0 0 0 0 127 0" result="hardAlpha"/>
<feOffset dy="2"/>
<feGaussianBlur stdDeviation="1.5"/>
<feComposite in2="hardAlpha" operator="out"/>
<feColorMatrix type="matrix" values="0 0 0 0 0 0 0 0 0 0 0 0 0 0 0 0 0 0 0.25 0"/>
<feBlend mode="normal" in2="BackgroundImageFix" result="effect1_dropShadow_193_1139"/>
<feBlend mode="normal" in="SourceGraphic" in2="effect1_dropShadow_193_1139" result="shape"/>
</filter>
<filter id="filter7_i_193_1139" x="277.634" y="155.995" width="44.969" height="52.0528" filterUnits="userSpaceOnUse" color-interpolation-filters="sRGB">
<feFlood flood-opacity="0" result="BackgroundImageFix"/>
<feBlend mode="normal" in="SourceGraphic" in2="BackgroundImageFix" result="shape"/>
<feColorMatrix in="SourceAlpha" type="matrix" values="0 0 0 0 0 0 0 0 0 0 0 0 0 0 0 0 0 0 127 0" result="hardAlpha"/>
<feOffset/>
<feGaussianBlur stdDeviation="2.7"/>
<feComposite in2="hardAlpha" operator="arithmetic" k2="-1" k3="1"/>
<feColorMatrix type="matrix" values="0 0 0 0 0.956863 0 0 0 0 0.443137 0 0 0 0 0.0941176 0 0 0 1 0"/>
<feBlend mode="normal" in2="shape" result="effect1_innerShadow_193_1139"/>
</filter>
<filter id="filter8_i_193_1139" x="296.05" y="148.98" width="9.67603" height="13.5821" filterUnits="userSpaceOnUse" color-interpolation-filters="sRGB">
<feFlood flood-opacity="0" result="BackgroundImageFix"/>
<feBlend mode="normal" in="SourceGraphic" in2="BackgroundImageFix" result="shape"/>
<feColorMatrix in="SourceAlpha" type="matrix" values="0 0 0 0 0 0 0 0 0 0 0 0 0 0 0 0 0 0 127 0" result="hardAlpha"/>
<feOffset dy="3.6"/>
<feGaussianBlur stdDeviation="1.8"/>
<feComposite in2="hardAlpha" operator="arithmetic" k2="-1" k3="1"/>
<feColorMatrix type="matrix" values="0 0 0 0 0 0 0 0 0 0.5 0 0 0 0 0.192771 0 0 0 1 0"/>
<feBlend mode="normal" in2="shape" result="effect1_innerShadow_193_1139"/>
</filter>
<filter id="filter9_i_193_1139" x="318.531" y="185.093" width="31.3641" height="29.6757" filterUnits="userSpaceOnUse" color-interpolation-filters="sRGB">
<feFlood flood-opacity="0" result="BackgroundImageFix"/>
<feBlend mode="normal" in="SourceGraphic" in2="BackgroundImageFix" result="shape"/>
<feColorMatrix in="SourceAlpha" type="matrix" values="0 0 0 0 0 0 0 0 0 0 0 0 0 0 0 0 0 0 127 0" result="hardAlpha"/>
<feOffset/>
<feGaussianBlur stdDeviation="1.02801"/>
<feComposite in2="hardAlpha" operator="arithmetic" k2="-1" k3="1"/>
<feColorMatrix type="matrix" values="0 0 0 0 0 0 0 0 0 0 0 0 0 0 0 0 0 0 0.25 0"/>
<feBlend mode="normal" in2="shape" result="effect1_innerShadow_193_1139"/>
</filter>
<filter id="filter10_i_193_1139" x="328.227" y="194.478" width="10.4926" height="10.6379" filterUnits="userSpaceOnUse" color-interpolation-filters="sRGB">
<feFlood flood-opacity="0" result="BackgroundImageFix"/>
<feBlend mode="normal" in="SourceGraphic" in2="BackgroundImageFix" result="shape"/>
<feColorMatrix in="SourceAlpha" type="matrix" values="0 0 0 0 0 0 0 0 0 0 0 0 0 0 0 0 0 0 127 0" result="hardAlpha"/>
<feOffset/>
<feGaussianBlur stdDeviation="1.02801"/>
<feComposite in2="hardAlpha" operator="arithmetic" k2="-1" k3="1"/>
<feColorMatrix type="matrix" values="0 0 0 0 0 0 0 0 0 0 0 0 0 0 0 0 0 0 0.25 0"/>
<feBlend mode="normal" in2="shape" result="effect1_innerShadow_193_1139"/>
</filter>
<filter id="filter11_i_193_1139" x="295.751" y="173.815" width="19.4113" height="19.9017" filterUnits="userSpaceOnUse" color-interpolation-filters="sRGB">
<feFlood flood-opacity="0" result="BackgroundImageFix"/>
<feBlend mode="normal" in="SourceGraphic" in2="BackgroundImageFix" result="shape"/>
<feColorMatrix in="SourceAlpha" type="matrix" values="0 0 0 0 0 0 0 0 0 0 0 0 0 0 0 0 0 0 127 0" result="hardAlpha"/>
<feOffset dy="-2.74322"/>
<feGaussianBlur stdDeviation="1.71451"/>
<feComposite in2="hardAlpha" operator="arithmetic" k2="-1" k3="1"/>
<feColorMatrix type="matrix" values="0 0 0 0 0 0 0 0 0 0 0 0 0 0 0 0 0 0 0.15 0"/>
<feBlend mode="normal" in2="shape" result="effect1_innerShadow_193_1139"/>
</filter>
<filter id="filter12_i_193_1139" x="299.427" y="184.551" width="1.50354" height="1.6206" filterUnits="userSpaceOnUse" color-interpolation-filters="sRGB">
<feFlood flood-opacity="0" result="BackgroundImageFix"/>
<feBlend mode="normal" in="SourceGraphic" in2="BackgroundImageFix" result="shape"/>
<feColorMatrix in="SourceAlpha" type="matrix" values="0 0 0 0 0 0 0 0 0 0 0 0 0 0 0 0 0 0 127 0" result="hardAlpha"/>
<feOffset/>
<feGaussianBlur stdDeviation="0.514354"/>
<feComposite in2="hardAlpha" operator="arithmetic" k2="-1" k3="1"/>
<feColorMatrix type="matrix" values="0 0 0 0 0 0 0 0 0 0 0 0 0 0 0 0 0 0 0.25 0"/>
<feBlend mode="normal" in2="shape" result="effect1_innerShadow_193_1139"/>
</filter>
<filter id="filter13_i_193_1139" x="312.789" y="190.945" width="1.50354" height="1.6206" filterUnits="userSpaceOnUse" color-interpolation-filters="sRGB">
<feFlood flood-opacity="0" result="BackgroundImageFix"/>
<feBlend mode="normal" in="SourceGraphic" in2="BackgroundImageFix" result="shape"/>
<feColorMatrix in="SourceAlpha" type="matrix" values="0 0 0 0 0 0 0 0 0 0 0 0 0 0 0 0 0 0 127 0" result="hardAlpha"/>
<feOffset/>
<feGaussianBlur stdDeviation="0.514354"/>
<feComposite in2="hardAlpha" operator="arithmetic" k2="-1" k3="1"/>
<feColorMatrix type="matrix" values="0 0 0 0 0 0 0 0 0 0 0 0 0 0 0 0 0 0 0.25 0"/>
<feBlend mode="normal" in2="shape" result="effect1_innerShadow_193_1139"/>
</filter>
<filter id="filter14_i_193_1139" x="305.594" y="183.405" width="1.04034" height="1.07291" filterUnits="userSpaceOnUse" color-interpolation-filters="sRGB">
<feFlood flood-opacity="0" result="BackgroundImageFix"/>
<feBlend mode="normal" in="SourceGraphic" in2="BackgroundImageFix" result="shape"/>
<feColorMatrix in="SourceAlpha" type="matrix" values="0 0 0 0 0 0 0 0 0 0 0 0 0 0 0 0 0 0 127 0" result="hardAlpha"/>
<feOffset/>
<feGaussianBlur stdDeviation="0.514354"/>
<feComposite in2="hardAlpha" operator="arithmetic" k2="-1" k3="1"/>
<feColorMatrix type="matrix" values="0 0 0 0 0 0 0 0 0 0 0 0 0 0 0 0 0 0 0.25 0"/>
<feBlend mode="normal" in2="shape" result="effect1_innerShadow_193_1139"/>
</filter>
<filter id="filter15_i_193_1139" x="309.571" y="186.315" width="1.44019" height="1.41603" filterUnits="userSpaceOnUse" color-interpolation-filters="sRGB">
<feFlood flood-opacity="0" result="BackgroundImageFix"/>
<feBlend mode="normal" in="SourceGraphic" in2="BackgroundImageFix" result="shape"/>
<feColorMatrix in="SourceAlpha" type="matrix" values="0 0 0 0 0 0 0 0 0 0 0 0 0 0 0 0 0 0 127 0" result="hardAlpha"/>
<feOffset/>
<feGaussianBlur stdDeviation="0.514354"/>
<feComposite in2="hardAlpha" operator="arithmetic" k2="-1" k3="1"/>
<feColorMatrix type="matrix" values="0 0 0 0 0 0 0 0 0 0 0 0 0 0 0 0 0 0 0.25 0"/>
<feBlend mode="normal" in2="shape" result="effect1_innerShadow_193_1139"/>
</filter>
<filter id="filter16_i_193_1139" x="312.94" y="183.944" width="1.01086" height="1.68987" filterUnits="userSpaceOnUse" color-interpolation-filters="sRGB">
<feFlood flood-opacity="0" result="BackgroundImageFix"/>
<feBlend mode="normal" in="SourceGraphic" in2="BackgroundImageFix" result="shape"/>
<feColorMatrix in="SourceAlpha" type="matrix" values="0 0 0 0 0 0 0 0 0 0 0 0 0 0 0 0 0 0 127 0" result="hardAlpha"/>
<feOffset/>
<feGaussianBlur stdDeviation="0.514354"/>
<feComposite in2="hardAlpha" operator="arithmetic" k2="-1" k3="1"/>
<feColorMatrix type="matrix" values="0 0 0 0 0 0 0 0 0 0 0 0 0 0 0 0 0 0 0.25 0"/>
<feBlend mode="normal" in2="shape" result="effect1_innerShadow_193_1139"/>
</filter>
<filter id="filter17_i_193_1139" x="304.251" y="187.567" width="1.9079" height="1.96571" filterUnits="userSpaceOnUse" color-interpolation-filters="sRGB">
<feFlood flood-opacity="0" result="BackgroundImageFix"/>
<feBlend mode="normal" in="SourceGraphic" in2="BackgroundImageFix" result="shape"/>
<feColorMatrix in="SourceAlpha" type="matrix" values="0 0 0 0 0 0 0 0 0 0 0 0 0 0 0 0 0 0 127 0" result="hardAlpha"/>
<feOffset/>
<feGaussianBlur stdDeviation="0.514354"/>
<feComposite in2="hardAlpha" operator="arithmetic" k2="-1" k3="1"/>
<feColorMatrix type="matrix" values="0 0 0 0 0 0 0 0 0 0 0 0 0 0 0 0 0 0 0.25 0"/>
<feBlend mode="normal" in2="shape" result="effect1_innerShadow_193_1139"/>
</filter>
<filter id="filter18_i_193_1139" x="308.764" y="188.928" width="1.90704" height="1.33271" filterUnits="userSpaceOnUse" color-interpolation-filters="sRGB">
<feFlood flood-opacity="0" result="BackgroundImageFix"/>
<feBlend mode="normal" in="SourceGraphic" in2="BackgroundImageFix" result="shape"/>
<feColorMatrix in="SourceAlpha" type="matrix" values="0 0 0 0 0 0 0 0 0 0 0 0 0 0 0 0 0 0 127 0" result="hardAlpha"/>
<feOffset/>
<feGaussianBlur stdDeviation="0.514354"/>
<feComposite in2="hardAlpha" operator="arithmetic" k2="-1" k3="1"/>
<feColorMatrix type="matrix" values="0 0 0 0 0 0 0 0 0 0 0 0 0 0 0 0 0 0 0.25 0"/>
<feBlend mode="normal" in2="shape" result="effect1_innerShadow_193_1139"/>
</filter>
<filter id="filter19_i_193_1139" x="65" y="198" width="25" height="25" filterUnits="userSpaceOnUse" color-interpolation-filters="sRGB">
<feFlood flood-opacity="0" result="BackgroundImageFix"/>
<feBlend mode="normal" in="SourceGraphic" in2="BackgroundImageFix" result="shape"/>
<feColorMatrix in="SourceAlpha" type="matrix" values="0 0 0 0 0 0 0 0 0 0 0 0 0 0 0 0 0 0 127 0" result="hardAlpha"/>
<feOffset/>
<feGaussianBlur stdDeviation="1.5625"/>
<feComposite in2="hardAlpha" operator="arithmetic" k2="-1" k3="1"/>
<feColorMatrix type="matrix" values="0 0 0 0 0.55 0 0 0 0 0.00229168 0 0 0 0 0.00229168 0 0 0 0.2 0"/>
<feBlend mode="normal" in2="shape" result="effect1_innerShadow_193_1139"/>
</filter>
<filter id="filter20_i_193_1139" x="74.7661" y="207.858" width="6.30057" height="6.54289" filterUnits="userSpaceOnUse" color-interpolation-filters="sRGB">
<feFlood flood-opacity="0" result="BackgroundImageFix"/>
<feBlend mode="normal" in="SourceGraphic" in2="BackgroundImageFix" result="shape"/>
<feColorMatrix in="SourceAlpha" type="matrix" values="0 0 0 0 0 0 0 0 0 0 0 0 0 0 0 0 0 0 127 0" result="hardAlpha"/>
<feOffset/>
<feGaussianBlur stdDeviation="0.625"/>
<feComposite in2="hardAlpha" operator="arithmetic" k2="-1" k3="1"/>
<feColorMatrix type="matrix" values="0 0 0 0 0.808333 0 0 0 0 0.503861 0 0 0 0 0.0471528 0 0 0 0.6 0"/>
<feBlend mode="normal" in2="shape" result="effect1_innerShadow_193_1139"/>
</filter>
<filter id="filter21_i_193_1139" x="271.355" y="179.951" width="28.4297" height="32.9081" filterUnits="userSpaceOnUse" color-interpolation-filters="sRGB">
<feFlood flood-opacity="0" result="BackgroundImageFix"/>
<feBlend mode="normal" in="SourceGraphic" in2="BackgroundImageFix" result="shape"/>
<feColorMatrix in="SourceAlpha" type="matrix" values="0 0 0 0 0 0 0 0 0 0 0 0 0 0 0 0 0 0 127 0" result="hardAlpha"/>
<feOffset/>
<feGaussianBlur stdDeviation="1.70696"/>
<feComposite in2="hardAlpha" operator="arithmetic" k2="-1" k3="1"/>
<feColorMatrix type="matrix" values="0 0 0 0 0.956863 0 0 0 0 0.443137 0 0 0 0 0.0941176 0 0 0 1 0"/>
<feBlend mode="normal" in2="shape" result="effect1_innerShadow_193_1139"/>
</filter>
<filter id="filter22_i_193_1139" x="282.998" y="175.516" width="6.11725" height="8.58668" filterUnits="userSpaceOnUse" color-interpolation-filters="sRGB">
<feFlood flood-opacity="0" result="BackgroundImageFix"/>
<feBlend mode="normal" in="SourceGraphic" in2="BackgroundImageFix" result="shape"/>
<feColorMatrix in="SourceAlpha" type="matrix" values="0 0 0 0 0 0 0 0 0 0 0 0 0 0 0 0 0 0 127 0" result="hardAlpha"/>
<feOffset dy="2.27595"/>
<feGaussianBlur stdDeviation="1.13797"/>
<feComposite in2="hardAlpha" operator="arithmetic" k2="-1" k3="1"/>
<feColorMatrix type="matrix" values="0 0 0 0 0 0 0 0 0 0.5 0 0 0 0 0.192771 0 0 0 1 0"/>
<feBlend mode="normal" in2="shape" result="effect1_innerShadow_193_1139"/>
</filter>
<filter id="filter23_i_193_1139" x="286.789" y="185.215" width="21.4877" height="18.8738" filterUnits="userSpaceOnUse" color-interpolation-filters="sRGB">
<feFlood flood-opacity="0" result="BackgroundImageFix"/>
<feBlend mode="normal" in="SourceGraphic" in2="BackgroundImageFix" result="shape"/>
<feColorMatrix in="SourceAlpha" type="matrix" values="0 0 0 0 0 0 0 0 0 0 0 0 0 0 0 0 0 0 127 0" result="hardAlpha"/>
<feOffset/>
<feGaussianBlur stdDeviation="0.649917"/>
<feComposite in2="hardAlpha" operator="arithmetic" k2="-1" k3="1"/>
<feColorMatrix type="matrix" values="0 0 0 0 0 0 0 0 0 0 0 0 0 0 0 0 0 0 0.25 0"/>
<feBlend mode="normal" in2="shape" result="effect1_innerShadow_193_1139"/>
</filter>
<filter id="filter24_i_193_1139" x="294.308" y="191.265" width="6.60706" height="6.75278" filterUnits="userSpaceOnUse" color-interpolation-filters="sRGB">
<feFlood flood-opacity="0" result="BackgroundImageFix"/>
<feBlend mode="normal" in="SourceGraphic" in2="BackgroundImageFix" result="shape"/>
<feColorMatrix in="SourceAlpha" type="matrix" values="0 0 0 0 0 0 0 0 0 0 0 0 0 0 0 0 0 0 127 0" result="hardAlpha"/>
<feOffset/>
<feGaussianBlur stdDeviation="0.649917"/>
<feComposite in2="hardAlpha" operator="arithmetic" k2="-1" k3="1"/>
<feColorMatrix type="matrix" values="0 0 0 0 0 0 0 0 0 0 0 0 0 0 0 0 0 0 0.25 0"/>
<feBlend mode="normal" in2="shape" result="effect1_innerShadow_193_1139"/>
</filter>
<filter id="filter25_i_193_1139" x="84.4047" y="191.34" width="39.2172" height="32.8709" filterUnits="userSpaceOnUse" color-interpolation-filters="sRGB">
<feFlood flood-opacity="0" result="BackgroundImageFix"/>
<feBlend mode="normal" in="SourceGraphic" in2="BackgroundImageFix" result="shape"/>
<feColorMatrix in="SourceAlpha" type="matrix" values="0 0 0 0 0 0 0 0 0 0 0 0 0 0 0 0 0 0 127 0" result="hardAlpha"/>
<feOffset/>
<feGaussianBlur stdDeviation="1.23024"/>
<feComposite in2="hardAlpha" operator="arithmetic" k2="-1" k3="1"/>
<feColorMatrix type="matrix" values="0 0 0 0 0 0 0 0 0 0 0 0 0 0 0 0 0 0 0.25 0"/>
<feBlend mode="normal" in2="shape" result="effect1_innerShadow_193_1139"/>
</filter>
<filter id="filter26_i_193_1139" x="97.4536" y="201.454" width="12.4019" height="12.8789" filterUnits="userSpaceOnUse" color-interpolation-filters="sRGB">
<feFlood flood-opacity="0" result="BackgroundImageFix"/>
<feBlend mode="normal" in="SourceGraphic" in2="BackgroundImageFix" result="shape"/>
<feColorMatrix in="SourceAlpha" type="matrix" values="0 0 0 0 0 0 0 0 0 0 0 0 0 0 0 0 0 0 127 0" result="hardAlpha"/>
<feOffset/>
<feGaussianBlur stdDeviation="1.23024"/>
<feComposite in2="hardAlpha" operator="arithmetic" k2="-1" k3="1"/>
<feColorMatrix type="matrix" values="0 0 0 0 0 0 0 0 0 0 0 0 0 0 0 0 0 0 0.25 0"/>
<feBlend mode="normal" in2="shape" result="effect1_innerShadow_193_1139"/>
</filter>
<filter id="filter27_i_193_1139" x="116.789" y="206.215" width="21.4877" height="18.8738" filterUnits="userSpaceOnUse" color-interpolation-filters="sRGB">
<feFlood flood-opacity="0" result="BackgroundImageFix"/>
<feBlend mode="normal" in="SourceGraphic" in2="BackgroundImageFix" result="shape"/>
<feColorMatrix in="SourceAlpha" type="matrix" values="0 0 0 0 0 0 0 0 0 0 0 0 0 0 0 0 0 0 127 0" result="hardAlpha"/>
<feOffset/>
<feGaussianBlur stdDeviation="0.649917"/>
<feComposite in2="hardAlpha" operator="arithmetic" k2="-1" k3="1"/>
<feColorMatrix type="matrix" values="0 0 0 0 0 0 0 0 0 0 0 0 0 0 0 0 0 0 0.25 0"/>
<feBlend mode="normal" in2="shape" result="effect1_innerShadow_193_1139"/>
</filter>
<filter id="filter28_i_193_1139" x="124.308" y="212.265" width="6.60706" height="6.75278" filterUnits="userSpaceOnUse" color-interpolation-filters="sRGB">
<feFlood flood-opacity="0" result="BackgroundImageFix"/>
<feBlend mode="normal" in="SourceGraphic" in2="BackgroundImageFix" result="shape"/>
<feColorMatrix in="SourceAlpha" type="matrix" values="0 0 0 0 0 0 0 0 0 0 0 0 0 0 0 0 0 0 127 0" result="hardAlpha"/>
<feOffset/>
<feGaussianBlur stdDeviation="0.649917"/>
<feComposite in2="hardAlpha" operator="arithmetic" k2="-1" k3="1"/>
<feColorMatrix type="matrix" values="0 0 0 0 0 0 0 0 0 0 0 0 0 0 0 0 0 0 0.25 0"/>
<feBlend mode="normal" in2="shape" result="effect1_innerShadow_193_1139"/>
</filter>
<filter id="filter29_i_193_1139" x="302.193" y="185.872" width="28.0271" height="26.9347" filterUnits="userSpaceOnUse" color-interpolation-filters="sRGB">
<feFlood flood-opacity="0" result="BackgroundImageFix"/>
<feBlend mode="normal" in="SourceGraphic" in2="BackgroundImageFix" result="shape"/>
<feColorMatrix in="SourceAlpha" type="matrix" values="0 0 0 0 0 0 0 0 0 0 0 0 0 0 0 0 0 0 127 0" result="hardAlpha"/>
<feOffset dy="-3.99828"/>
<feGaussianBlur stdDeviation="2.49893"/>
<feComposite in2="hardAlpha" operator="arithmetic" k2="-1" k3="1"/>
<feColorMatrix type="matrix" values="0 0 0 0 0 0 0 0 0 0 0 0 0 0 0 0 0 0 0.15 0"/>
<feBlend mode="normal" in2="shape" result="effect1_innerShadow_193_1139"/>
</filter>
<filter id="filter30_i_193_1139" x="308.155" y="207.181" width="2.32678" height="2.22862" filterUnits="userSpaceOnUse" color-interpolation-filters="sRGB">
<feFlood flood-opacity="0" result="BackgroundImageFix"/>
<feBlend mode="normal" in="SourceGraphic" in2="BackgroundImageFix" result="shape"/>
<feColorMatrix in="SourceAlpha" type="matrix" values="0 0 0 0 0 0 0 0 0 0 0 0 0 0 0 0 0 0 127 0" result="hardAlpha"/>
<feOffset/>
<feGaussianBlur stdDeviation="0.749678"/>
<feComposite in2="hardAlpha" operator="arithmetic" k2="-1" k3="1"/>
<feColorMatrix type="matrix" values="0 0 0 0 0 0 0 0 0 0 0 0 0 0 0 0 0 0 0.25 0"/>
<feBlend mode="normal" in2="shape" result="effect1_innerShadow_193_1139"/>
</filter>
<filter id="filter31_i_193_1139" x="328.166" y="199.076" width="2.32678" height="2.22862" filterUnits="userSpaceOnUse" color-interpolation-filters="sRGB">
<feFlood flood-opacity="0" result="BackgroundImageFix"/>
<feBlend mode="normal" in="SourceGraphic" in2="BackgroundImageFix" result="shape"/>
<feColorMatrix in="SourceAlpha" type="matrix" values="0 0 0 0 0 0 0 0 0 0 0 0 0 0 0 0 0 0 127 0" result="hardAlpha"/>
<feOffset/>
<feGaussianBlur stdDeviation="0.749678"/>
<feComposite in2="hardAlpha" operator="arithmetic" k2="-1" k3="1"/>
<feColorMatrix type="matrix" values="0 0 0 0 0 0 0 0 0 0 0 0 0 0 0 0 0 0 0.25 0"/>
<feBlend mode="normal" in2="shape" result="effect1_innerShadow_193_1139"/>
</filter>
<filter id="filter32_i_193_1139" x="312.75" y="199.856" width="1.74237" height="1.30688" filterUnits="userSpaceOnUse" color-interpolation-filters="sRGB">
<feFlood flood-opacity="0" result="BackgroundImageFix"/>
<feBlend mode="normal" in="SourceGraphic" in2="BackgroundImageFix" result="shape"/>
<feColorMatrix in="SourceAlpha" type="matrix" values="0 0 0 0 0 0 0 0 0 0 0 0 0 0 0 0 0 0 127 0" result="hardAlpha"/>
<feOffset/>
<feGaussianBlur stdDeviation="0.749678"/>
<feComposite in2="hardAlpha" operator="arithmetic" k2="-1" k3="1"/>
<feColorMatrix type="matrix" values="0 0 0 0 0 0 0 0 0 0 0 0 0 0 0 0 0 0 0.25 0"/>
<feBlend mode="normal" in2="shape" result="effect1_innerShadow_193_1139"/>
</filter>
<filter id="filter33_i_193_1139" x="320.158" y="197.862" width="1.7663" height="2.35472" filterUnits="userSpaceOnUse" color-interpolation-filters="sRGB">
<feFlood flood-opacity="0" result="BackgroundImageFix"/>
<feBlend mode="normal" in="SourceGraphic" in2="BackgroundImageFix" result="shape"/>
<feColorMatrix in="SourceAlpha" type="matrix" values="0 0 0 0 0 0 0 0 0 0 0 0 0 0 0 0 0 0 127 0" result="hardAlpha"/>
<feOffset/>
<feGaussianBlur stdDeviation="0.749678"/>
<feComposite in2="hardAlpha" operator="arithmetic" k2="-1" k3="1"/>
<feColorMatrix type="matrix" values="0 0 0 0 0 0 0 0 0 0 0 0 0 0 0 0 0 0 0.25 0"/>
<feBlend mode="normal" in2="shape" result="effect1_innerShadow_193_1139"/>
</filter>
<filter id="filter34_i_193_1139" x="320.679" y="192.477" width="2.11035" height="1.94578" filterUnits="userSpaceOnUse" color-interpolation-filters="sRGB">
<feFlood flood-opacity="0" result="BackgroundImageFix"/>
<feBlend mode="normal" in="SourceGraphic" in2="BackgroundImageFix" result="shape"/>
<feColorMatrix in="SourceAlpha" type="matrix" values="0 0 0 0 0 0 0 0 0 0 0 0 0 0 0 0 0 0 127 0" result="hardAlpha"/>
<feOffset/>
<feGaussianBlur stdDeviation="0.749678"/>
<feComposite in2="hardAlpha" operator="arithmetic" k2="-1" k3="1"/>
<feColorMatrix type="matrix" values="0 0 0 0 0 0 0 0 0 0 0 0 0 0 0 0 0 0 0.25 0"/>
<feBlend mode="normal" in2="shape" result="effect1_innerShadow_193_1139"/>
</filter>
<filter id="filter35_i_193_1139" x="316.273" y="204.608" width="2.83051" height="2.81606" filterUnits="userSpaceOnUse" color-interpolation-filters="sRGB">
<feFlood flood-opacity="0" result="BackgroundImageFix"/>
<feBlend mode="normal" in="SourceGraphic" in2="BackgroundImageFix" result="shape"/>
<feColorMatrix in="SourceAlpha" type="matrix" values="0 0 0 0 0 0 0 0 0 0 0 0 0 0 0 0 0 0 127 0" result="hardAlpha"/>
<feOffset/>
<feGaussianBlur stdDeviation="0.749678"/>
<feComposite in2="hardAlpha" operator="arithmetic" k2="-1" k3="1"/>
<feColorMatrix type="matrix" values="0 0 0 0 0 0 0 0 0 0 0 0 0 0 0 0 0 0 0.25 0"/>
<feBlend mode="normal" in2="shape" result="effect1_innerShadow_193_1139"/>
</filter>
<filter id="filter36_i_193_1139" x="322.084" y="200.95" width="2.32629" height="2.46763" filterUnits="userSpaceOnUse" color-interpolation-filters="sRGB">
<feFlood flood-opacity="0" result="BackgroundImageFix"/>
<feBlend mode="normal" in="SourceGraphic" in2="BackgroundImageFix" result="shape"/>
<feColorMatrix in="SourceAlpha" type="matrix" values="0 0 0 0 0 0 0 0 0 0 0 0 0 0 0 0 0 0 127 0" result="hardAlpha"/>
<feOffset/>
<feGaussianBlur stdDeviation="0.749678"/>
<feComposite in2="hardAlpha" operator="arithmetic" k2="-1" k3="1"/>
<feColorMatrix type="matrix" values="0 0 0 0 0 0 0 0 0 0 0 0 0 0 0 0 0 0 0.25 0"/>
<feBlend mode="normal" in2="shape" result="effect1_innerShadow_193_1139"/>
</filter>
<linearGradient id="paint0_linear_193_1139" x1="203.5" y1="98" x2="203.5" y2="224" gradientUnits="userSpaceOnUse">
<stop offset="0.140625" stop-color="#FF9110" stop-opacity="0"/>
<stop offset="1" stop-color="#FF9110"/>
</linearGradient>
<clipPath id="clip0_193_1139">
<rect width="390" height="300" fill="white"/>
</clipPath>
<clipPath id="clip1_193_1139">
<rect width="41.1205" height="41.1205" fill="white" transform="translate(328.193 171) rotate(34.3354)"/>
</clipPath>
<clipPath id="clip2_193_1139">
<rect width="27.4322" height="27.4322" fill="white" transform="translate(312.475 168) rotate(63.1523)"/>
</clipPath>
<clipPath id="clip3_193_1139">
<rect width="45.5189" height="45.5189" fill="white" transform="translate(264 173)"/>
</clipPath>
<clipPath id="clip4_193_1139">
<rect width="25.9967" height="25.9967" fill="white" transform="translate(280 188.948) rotate(-27.3614)"/>
</clipPath>
<clipPath id="clip5_193_1139">
<rect width="49.2096" height="49.2096" fill="white" transform="translate(79 183)"/>
</clipPath>
<clipPath id="clip6_193_1139">
<rect width="25.9967" height="25.9967" fill="white" transform="translate(110 209.948) rotate(-27.3614)"/>
</clipPath>
</defs>
</svg>
